HIERARCHY
ROOT Hips
{
    OFFSET 0.000000 0.000000 0.000000
    CHANNELS 6 Xposition Yposition Zposition Zrotation Xrotation Yrotation
    JOINT Spine
    {
        OFFSET -0.000000 0.081343 0.000000
        CHANNELS 3 Zrotation Xrotation Yrotation
        JOINT Spine1
        {
            OFFSET -0.000000 0.243280 0.000000
            CHANNELS 3 Zrotation Xrotation Yrotation
            JOINT Neck
            {
                OFFSET -0.000000 0.242281 0.022026
                CHANNELS 3 Zrotation Xrotation Yrotation
                JOINT Head
                {
                    OFFSET -0.000000 0.149025 -0.021289
                    CHANNELS 3 Zrotation Xrotation Yrotation
                    End Site
                    {
                        OFFSET -0.000000 0.198396 0.000000
                    }
                }
            }
            JOINT LeftShoulder
            {
                OFFSET 0.039707 0.224479 -0.002125
                CHANNELS 3 Zrotation Xrotation Yrotation
                JOINT LeftArm
                {
                    OFFSET 0.116942 0.000000 0.000000
                    CHANNELS 3 Zrotation Xrotation Yrotation
                    JOINT LeftForeArm
                    {
                        OFFSET 0.282002 0.000000 0.000000
                        CHANNELS 3 Zrotation Xrotation Yrotation
                        JOINT LeftHand
                        {
                            OFFSET 0.358743 0.000000 0.000000
                            CHANNELS 3 Zrotation Xrotation Yrotation
                            End Site
                            {
                                OFFSET 0.148797 0.000000 0.000000
                            }
                        }
                    }
                }
            }
            JOINT RightShoulder
            {
                OFFSET -0.039404 0.224479 -0.002125
                CHANNELS 3 Zrotation Xrotation Yrotation
                JOINT RightArm
                {
                    OFFSET -0.116942 0.000000 0.000000
                    CHANNELS 3 Zrotation Xrotation Yrotation
                    JOINT RightForeArm
                    {
                        OFFSET -0.282002 0.000000 0.000000
                        CHANNELS 3 Zrotation Xrotation Yrotation
                        JOINT RightHand
                        {
                            OFFSET -0.358743 0.000000 0.000000
                            CHANNELS 3 Zrotation Xrotation Yrotation
                            End Site
                            {
                                OFFSET -0.148797 0.000000 0.000000
                            }
                        }
                    }
                }
            }
        }
    }
    JOINT LeftUpLeg
    {
        OFFSET 0.099198 0.000000 0.000000
        CHANNELS 3 Zrotation Xrotation Yrotation
        JOINT LeftLeg
        {
            OFFSET -0.000000 -0.332973 0.000000
            CHANNELS 3 Zrotation Xrotation Yrotation
            JOINT LeftFoot
            {
                OFFSET -0.000000 -0.491254 0.000000
                CHANNELS 3 Zrotation Xrotation Yrotation
                JOINT LeftToeBase
                {
                    OFFSET -0.000000 -0.064479 0.148797
                    CHANNELS 3 Zrotation Xrotation Yrotation
                    End Site
                    {
                        OFFSET -0.000000 0.000000 0.039679
                    }
                }
            }
        }
    }
    JOINT RightUpLeg
    {
        OFFSET -0.099198 0.000000 0.000000
        CHANNELS 3 Zrotation Xrotation Yrotation
        JOINT RightLeg
        {
            OFFSET -0.000000 -0.332973 0.000000
            CHANNELS 3 Zrotation Xrotation Yrotation
            JOINT RightFoot
            {
                OFFSET -0.000000 -0.491254 0.000000
                CHANNELS 3 Zrotation Xrotation Yrotation
                JOINT RightToeBase
                {
                    OFFSET -0.000000 -0.064479 0.148797
                    CHANNELS 3 Zrotation Xrotation Yrotation
                    End Site
                    {
                        OFFSET -0.000000 0.000000 0.039679
                    }
                }
            }
        }
    }
}
MOTION
Frames:    9
Frame Time:    0.010000
-0.032477    0.866188    -0.135261    -6.614025    -2.382139    -39.916958    -0.325417    3.940128    -5.918354    -3.708937    11.589341    -1.601545    5.356189    15.751307    10.326215    -9.349459    -3.391859    9.130948    -3.834229    20.477394    -13.752631    -13.676810    19.167994    -65.040771    10.180783    -33.849369    -29.284586    45.363918    -24.970245    17.873123    5.470284    26.231501    16.226482    25.478706    38.915424    41.844952    -14.501369    -13.530313    33.548405    8.804982    -8.613886    7.961354    23.670902    -12.609921    13.962946    -12.743584    26.361227    6.419655    -0.813072    -9.292707    12.654481    0.000000    0.000000    0.000000    -9.165452    -6.541318    -16.688866    2.470054    28.904884    -4.165888    4.532031    -12.266705    -5.476253    0.000000    0.000000    0.000000    
-0.030059    0.866349    -0.133219    -6.613363    -2.288284    -40.395393    -0.427686    3.910054    -5.767258    -3.896038    11.692319    -1.529776    5.421645    15.879675    10.570760    -9.469147    -3.358932    9.374894    -4.089542    20.170122    -13.136325    -12.954970    20.603817    -65.453194    12.115329    -34.365917    -28.660248    44.670700    -25.176285    18.073750    5.396095    26.225706    16.435728    25.341393    38.694004    41.958080    -14.191682    -13.179854    33.483944    8.453311    -8.385887    7.943412    23.574032    -12.764341    14.467126    -12.531453    26.881641    6.276643    -0.740713    -9.463862    12.768289    0.000000    0.000000    0.000000    -9.273320    -6.612971    -16.597097    2.336916    28.689444    -4.097307    4.737370    -11.976206    -5.099119    0.000000    0.000000    0.000000    
-0.028526    0.866489    -0.129559    -6.676548    -2.400156    -41.088669    -0.567816    3.780710    -5.432263    -4.187463    12.034572    -1.377002    5.430149    15.958077    10.824204    -9.457767    -3.265673    9.653107    -4.106625    20.098280    -13.040951    -13.118784    20.729862    -65.068283    12.181652    -34.182068    -28.896994    44.057247    -25.274424    17.447023    5.415494    25.997713    16.569162    25.452326    38.686523    41.782196    -13.945281    -12.797678    33.501598    8.206133    -8.084707    7.976068    23.414360    -12.301230    15.021551    -12.430614    27.126068    6.055797    -0.654452    -9.888751    12.905662    0.000000    0.000000    0.000000    -9.505748    -6.322688    -16.362524    2.259848    28.349770    -3.802710    4.948292    -11.871979    -4.834711    0.000000    0.000000    0.000000    
-0.024076    0.866180    -0.127540    -6.145910    -2.478694    -41.560028    -0.993273    3.787391    -5.299833    -4.583489    11.839666    -1.303554    5.539145    16.052792    11.103704    -9.533550    -3.203765    9.941962    -4.175513    20.015863    -12.942479    -15.176989    18.498087    -63.179783    8.249302    -32.064148    -31.717987    44.577576    -24.087664    16.226690    5.377882    26.110958    16.726551    25.057951    38.834732    42.099361    -13.990480    -12.945942    33.340641    7.746073    -8.259472    8.204062    22.566484    -12.900283    15.597664    -11.908493    27.772608    5.893376    -0.622431    -9.880808    13.075718    0.000000    0.000000    0.000000    -10.175805    -6.865210    -16.658272    1.721040    28.383236    -3.992413    5.439832    -11.773768    -3.598103    0.000000    0.000000    0.000000    
-0.022131    0.867146    -0.123422    -6.502302    -2.810763    -41.324184    -0.848809    4.160716    -5.681252    -4.972677    11.998099    -1.382909    5.587312    16.168745    11.360662    -9.561876    -3.180822    10.213555    -3.795846    20.479151    -13.957022    -15.944265    18.027485    -61.650291    8.416376    -31.955750    -32.424129    43.728390    -24.218178    15.657908    5.349995    26.159159    16.748884    24.957958    38.892086    42.253777    -13.419456    -13.516373    33.554005    6.484238    -9.036453    8.856621    22.126095    -12.593953    14.279200    -12.112476    27.787645    6.420311    -0.515904    -10.002314    13.464299    0.000000    0.000000    0.000000    -10.466205    -5.790883    -17.503477    1.618256    27.733610    -3.643955    5.773784    -11.248194    -3.171618    0.000000    0.000000    0.000000    
-0.018286    0.866645    -0.122030    -6.053396    -2.708247    -42.028816    -1.276350    4.174171    -5.324390    -5.169058    11.628270    -1.265233    5.674416    16.309641    11.633739    -9.664426    -3.196725    10.487812    -3.917481    20.416683    -13.950720    -16.093206    18.244200    -61.004211    8.587551    -31.870924    -32.787605    43.203072    -24.272451    15.274207    5.346806    26.241604    16.734444    25.101137    38.587025    42.246178    -12.777812    -13.829895    33.792999    4.036013    -9.712068    8.712173    21.738588    -13.147757    15.193910    -11.827548    28.489582    6.188197    -0.461616    -10.077048    13.668488    0.000000    0.000000    0.000000    -11.050836    -6.667890    -17.461510    1.420532    28.093687    -3.068927    5.900857    -11.189189    -3.080807    0.000000    0.000000    0.000000    
-0.014860    0.865905    -0.120539    -5.485933    -2.582378    -42.693157    -1.856159    3.943050    -4.997690    -5.294171    11.420979    -1.158773    5.724668    16.451790    11.847303    -9.656612    -3.273241    10.713709    -4.016384    20.377750    -13.895134    -14.290076    20.888918    -61.912933    13.109031    -33.744247    -30.184647    41.699192    -25.395557    15.798616    5.343746    26.212513    16.752474    25.245670    38.388336    41.885109    -12.781878    -12.837719    34.149406    5.573395    -8.533489    8.952122    21.370665    -13.670439    15.370186    -12.083519    28.875952    6.504960    -0.270023    -10.222075    14.137230    0.000000    0.000000    0.000000    -11.641445    -7.574055    -17.237068    1.283078    28.387098    -2.819490    6.057809    -11.326495    -2.868199    0.000000    0.000000    0.000000    
-0.015440    0.865055    -0.119004    -5.796244    -1.798851    -44.430115    -1.704936    3.182861    -3.837983    -5.237187    11.802534    -0.754659    5.890177    16.477568    12.306669    -9.853473    -3.228427    11.166088    -4.116003    20.433994    -13.856015    -15.038130    19.862965    -60.926769    11.201786    -32.484760    -31.459120    41.233829    -24.709126    15.053929    5.365272    26.302755    16.692646    25.343372    38.471317    41.876343    -12.747073    -13.296095    34.268555    3.640005    -9.146183    8.900541    23.038496    -13.127933    18.194872    -12.375490    29.517271    5.865260    -0.040717    -11.068550    13.765817    0.000000    0.000000    0.000000    -10.553518    -8.318757    -14.974520    1.431766    28.248545    -3.014463    5.958038    -11.287182    -3.429507    0.000000    0.000000    0.000000    
-0.015286    0.866879    -0.114947    -6.705882    -2.216422    -44.009556    -1.428882    3.757190    -4.396530    -5.497439    12.300654    -0.890059    5.981555    16.471617    12.704829    -9.968706    -3.325149    11.554454    -4.226906    20.423233    -13.668293    -14.931311    21.294985    -60.371918    13.829878    -33.445965    -31.201778    40.215439    -25.207500    15.143253    5.349517    26.418589    16.667898    24.932358    39.207363    42.288296    -13.750779    -13.783325    33.948391    3.597592    -9.374396    8.948653    23.024849    -12.329978    16.769556    -12.701876    29.426033    6.052646    0.104570    -11.016088    14.242301    0.000000    0.000000    0.000000    -10.099034    -6.667620    -15.836894    0.470158    27.496632    -2.144456    6.909499    -10.538202    -2.799747    0.000000    0.000000    0.000000    
